<?xml version="1.0" encoding="utf-8"?>
<svg version="1.1" xmlns:xlink="http://www.w3.org/1999/xlink" width="556px" height="366px" xmlns="http://www.w3.org/2000/svg">
  <g>
    <path d="M 0 0  L 556 0  L 556 366  L 0 366  L 0 0  " fill-rule="nonzero" fill="#cccccc" stroke="none" />
    <path d="M 26 26  L 530 26  L 530 340  L 26 340  L 26 26  " fill-rule="nonzero" fill="#ffffff" stroke="none" />
    <path d="M 316.57 109.8  C 301.198 109.8  289.12 97.722  289.12 82.35  C 289.12 66.978  301.198 54.9  316.57 54.9  C 331.942 54.9  344.02 66.978  344.02 82.35  C 344.02 97.722  331.942 109.8  316.57 109.8  " fill-rule="nonzero" fill="#cccccc" stroke="none" />
    <path d="M 35 331  L 35 168.2  L 156.5 94.19999999999999  L 326.59999999999997 214.0906474820144  L 423.8 138.6  L 521 214.0906474820144  L 521 331  L 35 331  " fill-rule="nonzero" fill="#169bd5" stroke="none" />
  </g>
</svg>